<svg xmlns="http://www.w3.org/2000/svg"  viewBox="0 0 100 100" width="100px" height="100px"><path fill="#f9e65c" d="M70,82H31c-6.6,0-12-5.4-12-12V31c0-6.6,5.4-12,12-12h39c6.6,0,12,5.4,12,12v39 C82,76.6,76.6,82,70,82z"/><path fill="#656566" d="M50,51c0,3.314-2.686,6-6,6s-6-2.686-6-6s2.686-6,6-6S50,47.686,50,51z M44,47.688 c-1.657,0-3,1.483-3,3.313s1.343,3.313,3,3.313s3-1.483,3-3.313S45.657,47.688,44,47.688z"/><path fill="#1f212b" d="M44,57.5c-3.584,0-6.5-2.916-6.5-6.5s2.916-6.5,6.5-6.5s6.5,2.916,6.5,6.5S47.584,57.5,44,57.5z M44,45.5c-3.032,0-5.5,2.467-5.5,5.5s2.468,5.5,5.5,5.5s5.5-2.467,5.5-5.5S47.032,45.5,44,45.5z M44,54.813 c-1.93,0-3.5-1.71-3.5-3.813s1.57-3.813,3.5-3.813s3.5,1.71,3.5,3.813S45.93,54.813,44,54.813z M44,48.188 c-1.379,0-2.5,1.262-2.5,2.813s1.121,2.813,2.5,2.813s2.5-1.262,2.5-2.813S45.379,48.188,44,48.188z"/><path fill="#656566" d="M73,51c0,3.314-2.686,6-6,6c-3.314,0-6-2.686-6-6s2.686-6,6-6C70.314,45,73,47.686,73,51z M67,47.688c-1.657,0-3,1.483-3,3.313s1.343,3.313,3,3.313s3-1.483,3-3.313S68.657,47.688,67,47.688z"/><path fill="#1f212b" d="M67,57.5c-3.584,0-6.5-2.916-6.5-6.5s2.916-6.5,6.5-6.5s6.5,2.916,6.5,6.5S70.584,57.5,67,57.5z M67,45.5c-3.032,0-5.5,2.467-5.5,5.5s2.468,5.5,5.5,5.5s5.5-2.467,5.5-5.5S70.032,45.5,67,45.5z M67,54.813 c-1.93,0-3.5-1.71-3.5-3.813s1.57-3.813,3.5-3.813s3.5,1.71,3.5,3.813S68.93,54.813,67,54.813z M67,48.188 c-1.379,0-2.5,1.262-2.5,2.813s1.121,2.813,2.5,2.813s2.5-1.262,2.5-2.813S68.379,48.188,67,48.188z"/><polygon fill="#656566" points="55,54 55,45 52,45 52,57 54,57 55,57 60,57 60,54"/><path fill="#1f212b" d="M60,57.5h-8c-0.276,0-0.5-0.224-0.5-0.5V45c0-0.276,0.224-0.5,0.5-0.5h3c0.276,0,0.5,0.224,0.5,0.5 v8.5H60c0.276,0,0.5,0.224,0.5,0.5v3C60.5,57.276,60.276,57.5,60,57.5z M52.5,56.5h7v-2H55c-0.276,0-0.5-0.224-0.5-0.5v-8.5h-2 V56.5z"/><polygon fill="#656566" points="38,45 34,52 34,57 31,57 31,52 27,45 30,45 32.5,49 35,45"/><path fill="#1f212b" d="M34,57.5h-3c-0.276,0-0.5-0.224-0.5-0.5v-4.867l-3.935-6.885c-0.088-0.155-0.087-0.345,0.002-0.499 C26.657,44.595,26.821,44.5,27,44.5h3c0.173,0,0.333,0.089,0.424,0.235l2.076,3.322l2.076-3.322C34.667,44.589,34.827,44.5,35,44.5 h3c0.179,0,0.343,0.095,0.433,0.249c0.089,0.154,0.09,0.344,0.002,0.499L34.5,52.133V57C34.5,57.276,34.276,57.5,34,57.5z M31.5,56.5h2V52c0-0.087,0.022-0.172,0.065-0.248l3.573-6.252h-1.861l-2.354,3.765c-0.182,0.292-0.666,0.292-0.848,0L29.723,45.5 h-1.861l3.573,6.252C31.478,51.828,31.5,51.913,31.5,52V56.5z"/><path fill="#1f212b" d="M69.5,78h-38c-4.687,0-8.5-3.813-8.5-8.5v-38c0-4.687,3.813-8.5,8.5-8.5h7 c0.276,0,0.5,0.224,0.5,0.5S38.776,24,38.5,24h-7c-4.136,0-7.5,3.364-7.5,7.5v38c0,4.136,3.364,7.5,7.5,7.5h38 c4.136,0,7.5-3.364,7.5-7.5v-2c0-0.276,0.224-0.5,0.5-0.5s0.5,0.224,0.5,0.5v2C78,74.187,74.187,78,69.5,78z"/><path fill="#1f212b" d="M77.5,65c-0.276,0-0.5-0.224-0.5-0.5v-8c0-0.276,0.224-0.5,0.5-0.5s0.5,0.224,0.5,0.5v8 C78,64.776,77.776,65,77.5,65z"/><path fill="#1f212b" d="M77.5,54c-0.276,0-0.5-0.224-0.5-0.5v-22c0-4.136-3.364-7.5-7.5-7.5h-16c-0.276,0-0.5-0.224-0.5-0.5 s0.224-0.5,0.5-0.5h16c4.687,0,8.5,3.813,8.5,8.5v22C78,53.776,77.776,54,77.5,54z"/><path fill="#1f212b" d="M44.5,24h-3c-0.276,0-0.5-0.224-0.5-0.5s0.224-0.5,0.5-0.5h3c0.276,0,0.5,0.224,0.5,0.5 S44.776,24,44.5,24z"/><path fill="#1f212b" d="M70,83H31c-7.168,0-13-5.832-13-13V31c0-7.168,5.832-13,13-13h39c7.168,0,13,5.832,13,13v39 C83,77.168,77.168,83,70,83z M31,20c-6.065,0-11,4.935-11,11v39c0,6.065,4.935,11,11,11h39c6.065,0,11-4.935,11-11V31 c0-6.065-4.935-11-11-11H31z"/></svg>